<svg xmlns="http://www.w3.org/2000/svg" width="136.87" height="136.873" viewBox="205.975 537.492 136.87 136.873"><g fill="#FFF"><path d="M286.819 614.687c-4.871 3.372-9.634 6.059-12.408 6.063-2.146.004-6.294-1.905-11.265-4.736-2.916 4.29-11.563 16.799-17.733 23.646-1.886 2.094-4.599 5.188-6.801 7.709-1.079 1.942 1.782 3.056 4.617 2.613 5.017-.782 59.896-2.116 69.591-2.347l-3.693-4.601-22.308-28.347zM295.833 599.784c3.92-3.386 10.139-10.262 13.371-13.909a5.975 5.975 0 0 0-3.451-.3c-6.354 1.288-61.927 1.369-61.927 1.369s-8.599.22-11.987 2.56c6.887 4.883 35.868 25.142 42.572 25.014 5.12-.098 18.23-11.975 21.422-14.734zM291.317 611.42l22.573 27.844 3.703 4.397c.521-1.304.888-2.994.861-5.192-.053-4.438-3.176-45.393-3.176-45.393s-.754-2.083-2.261-4.072c-2.395 3.449-6.627 9.32-9.847 12.548-1.049 1.052-6.107 5.511-11.853 9.868zM230.373 594.029c-.147 11.338 1.742 50.396 1.742 50.396s.095 1.16 1.347 1.245l25.156-32.345c-10.533-6.468-22.93-15.402-28.245-19.296zM249.799 580.418l4.909-2.959-7.011-11.026-5.922 3.938zM268.226 578.052l-2.846-17.499h7.256l1.564 17.499zM283.584 576.844l4.567-10.766 5.95 3.293-5.964 9.786z"/></g></svg>