<svg xmlns="http://www.w3.org/2000/svg" width="136.87" height="136.873" viewBox="205.975 222.845 136.87 136.873"><path fill="#FFF" d="M276.727 266.587s-9.715 5.591-20.622 11.965l-.798-7.934s-8.772 1.234-12.3 2.645c-2.412.965-.472 8.033.995 12.405-7.751 4.593-14.472 8.661-16.853 10.344-6.853 4.837-2.42 9.27-2.42 9.27h12.496s2.016 36.852 4.434 42.438c2.418 5.585 26.2 2.481 26.2 2.481s6.07-.329 13.398-.653c-.407-8.638-1.526-31.087-1.526-31.087 0-1.839 1.505-1.504 3.345-1.504h11.549c1.84 0 3.346.182 3.346 2.022v29.984c2.983-.058 5.465-.062 6.972.022 7.255.403 8.465-8.276 8.465-8.276l-.807-29.784s1.613-1.612 7.256-2.779c5.644-1.168 5.644-6.291 5.644-6.291l-48.774-35.268zm-7.652 54.657c0 2.112-.407 3.652-2.503 3.915l-11.973.372a3.722 3.722 0 0 1-4.18-3.345l-1.111-12.911c-.2-2.103 1.37-2.473 3.469-2.702l12.48-.722c2.1-.229 3.817 1.312 3.817 3.424v11.969zM246.143 270.094l-1.413-1.348c-.343-.616-1.943-4.685-2.135-6.436-7.852-1.497-10.897-6.174-11.944-9.591-1.401-4.572-1.634-7.744 1.369-11.807 3.21-4.341 8.437-7.257 13.007-7.257h2.357l.002 5.945h-2.357c-3.05 0-6.165 1.195-8.455 4.294-1.479 2.001-2.636 3.461-1.415 7.443.97 3.163 4.025 4.768 7.373 5.548.015-.124.031-.246.05-.37.682-4.708 3.383-8.221 7.228-9.396 3.767-1.153 8.166-.079 10.702 2.609 1.229 1.303 1.857 2.925 1.765 4.565-.097 1.737-.977 3.394-2.479 4.665-3.526 2.985-8.66 3.447-12.463 3.283.166.918 2.661 6.273 2.661 6.273l-3.853 1.58zm1.061-12.575l.06.003c2.981.156 7.042-.089 9.488-2.158.496-.42-1.806-5.474-5.563-3.734-2.811 1.301-3.742 4.192-3.94 5.564a5.648 5.648 0 0 0-.045.325z"/></svg>