<svg xmlns="http://www.w3.org/2000/svg" width="136.87" height="136.873" viewBox="205.975 380.221 136.87 136.873"><g fill="#FFF"><path d="M303.172 486.067l-4.438-68.288s-.493-15.531-6.902-16.024c-6.41-.493-3.945 16.024-3.945 16.024s-16.271-.246-29.09 0-9.861 17.063-9.861 17.063l2.465 38.607s0 9.166.986 18.042c.986 8.875 10.847 8.382 10.847 8.382s20.71 1.973 31.063 0c10.355-1.972 8.875-13.806 8.875-13.806zm-35.538 4.916c-3.224 0-5.837-2.135-5.837-4.77s2.698-4.105 5.923-4.105c3.224 0 3.581 1.763 3.581 4.397s-.442 4.478-3.667 4.478zm0-13.673c-3.224 0-5.837-2.136-5.837-4.77 0-2.636 2.093-4.751 5.317-4.751 3.223 0 5.316 2.115 5.316 4.751.001 2.634-1.571 4.77-4.796 4.77zm-5.837-18.867c0-2.636 2.212-4.771 4.94-4.771s4.939 2.135 4.939 4.771c0 2.633-2.211 4.77-4.939 4.77s-4.94-2.138-4.94-4.77zm22.454 32.54c-3.224 0-4.724-2.135-4.724-4.77s1.868-4.105 5.092-4.105c3.225 0 5.469 1.471 5.469 4.105s-2.612 4.77-5.837 4.77zm0-13.673c-3.224 0-4.724-2.136-4.724-4.77 0-2.636 1.5-4.204 4.724-4.204 3.225 0 5.837 1.568 5.837 4.204 0 2.634-2.612 4.77-5.837 4.77zm0-13.489c-3.224 0-5.1-2.137-5.1-4.77 0-2.636 1.876-4.771 5.1-4.771 3.225 0 5.837 2.135 5.837 4.771 0 2.633-2.612 4.77-5.837 4.77zm3.663-16.278c-6.51.898-24.47 0-24.47 0s-4.489.225-4.938-3.816-.898-15.04-.898-15.04 1.123-2.918 2.47-2.694 3.367 0 3.367 0h24.919s3.816 1.796 4.041 6.511c.225 4.714 0 11.448 0 11.448s2.019 2.694-4.491 3.591zM245.535 400.191l5.127 8.713-6.273 3.048-6.65-11.761 6.462-2.752zM242.179 422.66l-1.417 5.961-13.757-2.641 1.147-5.842zM261.628 407.528h-.229M262.462 397.162l-2.429 10.259 5.072 2.226 3.392-10.093z"/></g></svg>