<svg version="1.2" baseProfile="tiny-ps" xmlns="http://www.w3.org/2000/svg" width="1105" height="1287"><defs><linearGradient id="grd1" gradientUnits="userSpaceOnUse" x1="29.365" y1="16.909" x2="1082.349" y2="16.909"><stop offset=".28" stop-color="#ff742a"/><stop offset=".48" stop-color="#df6422"/><stop offset=".48" stop-color="#ff742a"/></linearGradient></defs><style>.shp1{fill:#43454b}</style><g id="Layer 1"><g id="&lt;Group&gt;"><path id="&lt;Compound Path&gt;" fill-rule="evenodd" d="M1082.35 585v171.2H539.24V510.62H229.08V756.2H29.36V42.91H741V585h341.35zM539.24 345.54V212.06H229.08v133.48h310.16z" fill="url(#grd1)"/></g><g id="&lt;Group&gt;"><path id="&lt;Compound Path&gt;" class="shp1" d="M108.68 987.96H51.24v55.92H29.36V912.79h88.51v17.55H51.24v40.07h57.44v17.55zM254.34 912.79v87.87c0 14.52-4.74 25.67-14.22 33.44-9.49 7.78-21.88 11.67-37.19 11.67-15 0-27.16-3.9-36.46-11.71-9.31-7.8-13.96-18.93-13.96-33.4v-87.87h21.88v87.8c0 9.18 2.58 16.07 7.74 20.69 5.17 4.63 12.1 6.93 20.8 6.93 9 0 16.17-2.3 21.52-6.93 5.34-4.62 8.01-11.51 8.01-20.69v-87.8h21.88zM401.26 1043.88h-21.79l-58.16-95.71-.54.18v95.53h-21.88V912.79h21.88l58.16 95.61.54-.18v-95.43h21.79v131.09z"/><path id="&lt;Compound Path&gt;" fill-rule="evenodd" class="shp1" d="M448.42 1043.88V912.79h42.5c16.62 0 30.15 5.19 40.56 15.57 10.41 10.38 15.62 23.74 15.62 40.07v19.9c0 16.38-5.21 29.73-15.62 40.06-10.41 10.33-23.94 15.49-40.56 15.49h-42.5zm21.88-113.54v95.98h19.99c10.86 0 19.4-3.54 25.61-10.61 6.22-7.08 9.32-16.22 9.32-27.44v-20.06c0-11.09-3.1-20.18-9.32-27.26-6.21-7.07-14.75-10.61-25.61-10.61H470.3zM657.1 1013.26h-51.32l-10.44 30.62h-22.15l48.17-131.09h20.71l47.62 131.09h-22.23l-10.36-30.62zm-45.02-18.27h38.81l-19-56h-.54l-19.27 56z"/><path id="&lt;Compound Path&gt;" class="shp1" d="M818.96 1000.39l.18.54c.24 13.26-4.06 24.05-12.92 32.37-8.85 8.31-20.84 12.47-35.96 12.47-15.31 0-27.75-5.15-37.32-15.45-9.58-10.29-14.37-23.45-14.37-39.47v-24.94c0-15.97 4.73-29.12 14.19-39.49 9.45-10.34 21.74-15.52 36.86-15.52 15.49 0 27.69 4.06 36.6 12.2 8.92 8.13 13.25 19.06 13.01 32.81l-.18.54H797.9c0-8.82-2.39-15.69-7.16-20.62-4.77-4.92-11.81-7.38-21.12-7.38-8.94 0-16.03 3.54-21.29 10.61-5.25 7.08-7.88 15.95-7.88 26.63v25.1c0 10.8 2.69 19.73 8.06 26.81 5.37 7.07 12.62 10.61 21.75 10.61 9.06 0 15.93-2.42 20.61-7.27s7.03-11.7 7.03-20.55h21.06zM912.67 912.79h21.88v93.18c0 12.25-3.91 21.94-11.71 29.08-7.8 7.14-17.82 10.72-30.07 10.72-13.14 0-23.55-3.27-31.24-9.82-7.68-6.54-11.38-16.11-11.07-28.72l.18-.54h21.15c0 7.41 1.85 12.85 5.54 16.32 3.69 3.46 8.84 5.2 15.44 5.2 5.76 0 10.52-2.01 14.27-6.03 3.75-4.02 5.63-9.44 5.63-16.29v-93.1z"/><path id="&lt;Compound Path&gt;" fill-rule="evenodd" class="shp1" d="M1049.77 1013.26h-51.32l-10.44 30.62h-22.15l48.17-131.09h20.71l47.62 131.09h-22.23l-10.36-30.62zm-45.01-18.27h38.8l-19-56h-.54l-19.26 56z"/><path id="&lt;Compound Path&gt;" class="shp1" d="M51.24 1223.88h60.24v17.56H29.36v-131.09h21.88v113.53z"/><path id="&lt;Compound Path&gt;" fill-rule="evenodd" class="shp1" d="M274.42 1210.82H223.1l-10.44 30.62h-22.15l48.17-131.09h20.71l47.63 131.09h-22.24l-10.36-30.62zm-45.01-18.27h38.8l-18.99-56h-.55l-19.26 56zM394.7 1241.44v-131.09h43.57c14.53 0 25.88 2.98 34.04 8.95 8.16 5.98 12.24 14.91 12.24 26.79 0 5.94-1.71 11.25-5.13 15.94-3.42 4.68-8.16 8.16-14.23 10.44 7.8 1.74 13.81 5.49 18.01 11.25 4.2 5.77 6.3 12.45 6.3 20.08 0 12.31-4.02 21.66-12.06 28.04-8.05 6.41-19.15 9.6-33.31 9.6H394.7zm21.88-75.9h24.13c6.78 0 12.14-1.61 16.07-4.83 3.92-3.2 5.89-7.75 5.89-13.63 0-6.48-2.07-11.29-6.21-14.46-4.14-3.13-10.21-4.72-18.19-4.72h-21.69v37.64zm0 16.29v42.05h27.55c7.56 0 13.38-1.72 17.46-5.17 4.09-3.43 6.13-8.43 6.13-14.96 0-6.95-1.72-12.33-5.14-16.17-3.42-3.83-8.76-5.75-16.02-5.75h-29.98zM687.48 1187.69c0 16.02-5.03 29.31-15.09 39.83-10.05 10.55-23.09 15.81-39.12 15.81-15.72 0-28.49-5.26-38.31-15.81-9.81-10.52-14.72-23.81-14.72-39.83v-23.59c0-15.96 4.91-29.24 14.72-39.8 9.82-10.56 22.56-15.84 38.22-15.84 16.03 0 29.09 5.28 39.17 15.84 10.08 10.56 15.13 23.84 15.13 39.8v23.59zm-21.79-23.77c0-10.92-2.93-19.9-8.78-26.92-5.85-7.03-13.76-10.54-23.73-10.54-9.6 0-17.19 3.51-22.77 10.54-5.59 7.02-8.38 16-8.38 26.92v23.77c0 11.04 2.79 20.09 8.38 27.15 5.58 7.05 13.2 10.57 22.86 10.57 10.03 0 17.93-3.51 23.73-10.53 5.79-7.03 8.69-16.09 8.69-27.19v-23.77zM805.5 1187.05v54.39h-21.88v-131.09h48.44c14.64 0 25.96 3.3 33.94 9.9 7.98 6.6 11.97 16.03 11.97 28.27 0 6.78-1.75 12.62-5.26 17.52-3.51 4.89-8.63 8.8-15.35 11.74 7.38 2.34 12.69 6.16 15.93 11.49 3.24 5.3 4.86 11.83 4.86 19.57v10.9c0 3.84.49 7.59 1.45 11.25.95 3.67 2.57 6.46 4.86 8.38v2.07h-22.51c-2.4-1.98-3.95-5.11-4.64-9.37-.69-4.26-1.03-8.43-1.03-12.51v-10.54c0-6.72-1.93-12.06-5.77-16.02-3.84-3.96-9.12-5.95-15.84-5.95H805.5zm0-17.55h25.39c8.76 0 15.15-1.69 19.17-5.04 4.02-3.36 6.04-8.49 6.04-15.4 0-6.6-1.98-11.78-5.95-15.54-3.96-3.74-9.99-5.62-18.09-5.62H805.5v41.6zM1080.36 1187.69c0 16.02-5.03 29.31-15.08 39.83-10.05 10.55-23.1 15.81-39.12 15.81-15.73 0-28.5-5.26-38.31-15.81-9.82-10.52-14.72-23.81-14.72-39.83v-23.59c0-15.96 4.9-29.24 14.72-39.8 9.81-10.56 22.55-15.84 38.22-15.84 16.02 0 29.08 5.28 39.16 15.84 10.09 10.56 15.13 23.84 15.13 39.8v23.59zm-21.79-23.77c0-10.92-2.93-19.9-8.78-26.92-5.85-7.03-13.76-10.54-23.72-10.54-9.6 0-17.2 3.51-22.78 10.54-5.58 7.02-8.37 16-8.37 26.92v23.77c0 11.04 2.79 20.09 8.37 27.15 5.58 7.05 13.2 10.57 22.87 10.57 10.02 0 17.93-3.51 23.72-10.53 5.8-7.03 8.69-16.09 8.69-27.19v-23.77z"/></g></g></svg>