<svg version="1.2" baseProfile="tiny-ps" xmlns="http://www.w3.org/2000/svg" viewBox="0 0 1105 1287" width="1105" height="1287">
	<title>logo-svg</title>
	<defs>
		<linearGradient id="grd1" gradientUnits="userSpaceOnUse"  x1="29.365" y1="16.909" x2="1082.349" y2="16.909">
			<stop offset="0.28" stop-color="#ffffff"  />
			<stop offset="0.45" stop-color="#ffffff"  />
			<stop offset="0.48" stop-color="#ffffff"  />
			<stop offset="0.531" stop-color="#ffffff"  />
			<stop offset="0.613" stop-color="#ffffff"  />
		</linearGradient>
	</defs>
	<style>
		tspan { white-space:pre }
		.shp0 { fill: url(#grd1) } 
		.shp1 { fill: #ffffff } 
	</style>
	<g id="Layer 1">
		<g id="&lt;Group&gt;">
			<path id="&lt;Compound Path&gt;" fill-rule="evenodd" class="shp0" d="M1082.35 585L1082.35 756.2L539.24 756.2L539.24 510.62L229.08 510.62L229.08 756.2L29.36 756.2L29.36 42.91L741 42.91L741 585L1082.35 585ZM539.24 212.06L229.08 212.06L229.08 345.54L539.24 345.54L539.24 212.06Z" />
		</g>
		<g id="&lt;Group&gt;">
			<path id="&lt;Compound Path&gt;" class="shp1" d="M108.68 987.96L51.24 987.96L51.24 1043.88L29.36 1043.88L29.36 912.79L117.87 912.79L117.87 930.34L51.24 930.34L51.24 970.41L108.68 970.41L108.68 987.96L108.68 987.96ZM254.34 912.79L254.34 1000.66C254.34 1015.18 249.6 1026.33 240.12 1034.1C230.63 1041.88 218.24 1045.77 202.93 1045.77C187.93 1045.77 175.77 1041.87 166.47 1034.06C157.16 1026.26 152.51 1015.13 152.51 1000.66L152.51 912.79L174.39 912.79L174.39 1000.59C174.39 1009.77 176.97 1016.66 182.13 1021.28C187.3 1025.91 194.23 1028.21 202.93 1028.21C211.93 1028.21 219.1 1025.91 224.45 1021.28C229.79 1016.66 232.46 1009.77 232.46 1000.59L232.46 912.79L254.34 912.79L254.34 912.79ZM401.26 1043.88L379.47 1043.88L321.31 948.17L320.77 948.35L320.77 1043.88L298.89 1043.88L298.89 912.79L320.77 912.79L378.93 1008.4L379.47 1008.22L379.47 912.79L401.26 912.79L401.26 1043.88L401.26 1043.88Z" />
			<path id="&lt;Compound Path&gt;" fill-rule="evenodd" class="shp1" d="M448.42 1043.88L448.42 912.79L490.92 912.79C507.54 912.79 521.07 917.98 531.48 928.36C541.89 938.74 547.1 952.1 547.1 968.43L547.1 988.33C547.1 1004.71 541.89 1018.06 531.48 1028.39C521.07 1038.72 507.54 1043.88 490.92 1043.88L448.42 1043.88ZM470.3 930.34L470.3 1026.32L490.29 1026.32C501.15 1026.32 509.69 1022.78 515.9 1015.71C522.12 1008.63 525.22 999.49 525.22 988.27L525.22 968.21C525.22 957.12 522.12 948.03 515.9 940.95C509.69 933.88 501.15 930.34 490.29 930.34L470.3 930.34ZM605.78 1013.26L595.34 1043.88L573.19 1043.88L621.36 912.79L642.07 912.79L689.69 1043.88L667.46 1043.88L657.1 1013.26L605.78 1013.26ZM650.89 994.99L631.89 938.99L631.35 938.99L612.08 994.99L650.89 994.99Z" />
			<path id="&lt;Compound Path&gt;" class="shp1" d="M818.96 1000.39L819.14 1000.93C819.38 1014.19 815.08 1024.98 806.22 1033.3C797.37 1041.61 785.38 1045.77 770.26 1045.77C754.95 1045.77 742.51 1040.62 732.94 1030.32C723.36 1020.03 718.57 1006.87 718.57 990.85L718.57 965.91C718.57 949.94 723.3 936.79 732.76 926.42C742.21 916.08 754.5 910.9 769.62 910.9C785.11 910.9 797.31 914.96 806.22 923.1C815.14 931.23 819.47 942.16 819.23 955.91L819.05 956.45L797.9 956.45C797.9 947.63 795.51 940.76 790.74 935.83C785.97 930.91 778.93 928.45 769.62 928.45C760.68 928.45 753.59 931.99 748.33 939.06C743.08 946.14 740.45 955.01 740.45 965.69L740.45 990.79C740.45 1001.59 743.14 1010.52 748.51 1017.6C753.88 1024.67 761.13 1028.21 770.26 1028.21C779.32 1028.21 786.19 1025.79 790.87 1020.94C795.55 1016.09 797.9 1009.24 797.9 1000.39L818.96 1000.39L818.96 1000.39ZM912.67 912.79L934.55 912.79L934.55 1005.97C934.55 1018.22 930.64 1027.91 922.84 1035.05C915.04 1042.19 905.02 1045.77 892.77 1045.77C879.63 1045.77 869.22 1042.5 861.53 1035.95C853.85 1029.41 850.15 1019.84 850.46 1007.23L850.64 1006.69L871.79 1006.69C871.79 1014.1 873.64 1019.54 877.33 1023.01C881.02 1026.47 886.17 1028.21 892.77 1028.21C898.53 1028.21 903.29 1026.2 907.04 1022.18C910.79 1018.16 912.67 1012.74 912.67 1005.89L912.67 912.79L912.67 912.79Z" />
			<path id="&lt;Compound Path&gt;" fill-rule="evenodd" class="shp1" d="M998.45 1013.26L988.01 1043.88L965.86 1043.88L1014.03 912.79L1034.74 912.79L1082.36 1043.88L1060.13 1043.88L1049.77 1013.26L998.45 1013.26ZM1004.76 994.99L1043.56 994.99L1024.56 938.99L1024.02 938.99L1004.76 994.99Z" />
			<path id="&lt;Compound Path&gt;" class="shp1" d="M51.24 1223.88L111.48 1223.88L111.48 1241.44L29.36 1241.44L29.36 1110.35L51.24 1110.35L51.24 1223.88L51.24 1223.88Z" />
			<path id="&lt;Compound Path&gt;" fill-rule="evenodd" class="shp1" d="M223.1 1210.82L212.66 1241.44L190.51 1241.44L238.68 1110.35L259.39 1110.35L307.02 1241.44L284.78 1241.44L274.42 1210.82L223.1 1210.82ZM229.41 1192.55L268.21 1192.55L249.22 1136.55L248.67 1136.55L229.41 1192.55ZM394.7 1241.44L394.7 1110.35L438.27 1110.35C452.8 1110.35 464.15 1113.33 472.31 1119.3C480.47 1125.28 484.55 1134.21 484.55 1146.09C484.55 1152.03 482.84 1157.34 479.42 1162.03C476 1166.71 471.26 1170.19 465.19 1172.47C472.99 1174.21 479 1177.96 483.2 1183.72C487.4 1189.49 489.5 1196.17 489.5 1203.8C489.5 1216.11 485.48 1225.46 477.44 1231.84C469.39 1238.25 458.29 1241.44 444.13 1241.44L394.7 1241.44ZM416.58 1165.54L440.71 1165.54C447.49 1165.54 452.85 1163.93 456.78 1160.71C460.7 1157.51 462.67 1152.96 462.67 1147.08C462.67 1140.6 460.6 1135.79 456.46 1132.62C452.32 1129.49 446.25 1127.9 438.27 1127.9L416.58 1127.9L416.58 1165.54ZM416.58 1223.88L444.13 1223.88C451.69 1223.88 457.51 1222.16 461.59 1218.71C465.68 1215.28 467.72 1210.28 467.72 1203.75C467.72 1196.8 466 1191.42 462.58 1187.58C459.16 1183.75 453.82 1181.83 446.56 1181.83L416.58 1181.83L416.58 1223.88ZM687.48 1187.69C687.48 1203.71 682.45 1217 672.39 1227.52C662.34 1238.07 649.3 1243.33 633.27 1243.33C617.55 1243.33 604.78 1238.07 594.96 1227.52C585.15 1217 580.24 1203.71 580.24 1187.69L580.24 1164.1C580.24 1148.14 585.15 1134.86 594.96 1124.3C604.78 1113.74 617.52 1108.46 633.18 1108.46C649.21 1108.46 662.27 1113.74 672.35 1124.3C682.43 1134.86 687.48 1148.14 687.48 1164.1L687.48 1187.69ZM656.91 1137C651.06 1129.97 643.15 1126.46 633.18 1126.46C623.58 1126.46 615.99 1129.97 610.41 1137C604.82 1144.02 602.03 1153 602.03 1163.92L602.03 1187.69C602.03 1198.73 604.82 1207.78 610.41 1214.84C615.99 1221.89 623.61 1225.41 633.27 1225.41C643.3 1225.41 651.2 1221.9 657 1214.88C662.79 1207.85 665.69 1198.79 665.69 1187.69L665.69 1163.92C665.69 1153 662.76 1144.02 656.91 1137ZM805.5 1241.44L783.62 1241.44L783.62 1110.35L832.06 1110.35C846.7 1110.35 858.02 1113.65 866 1120.25C873.98 1126.85 877.97 1136.28 877.97 1148.52C877.97 1155.3 876.22 1161.14 872.71 1166.04C869.2 1170.93 864.08 1174.84 857.36 1177.78C864.74 1180.12 870.05 1183.94 873.29 1189.27C876.53 1194.57 878.15 1201.1 878.15 1208.84L878.15 1219.74C878.15 1223.58 878.64 1227.33 879.6 1230.99C880.55 1234.66 882.17 1237.45 884.46 1239.37L884.46 1241.44L861.95 1241.44C859.55 1239.46 858 1236.33 857.31 1232.07C856.62 1227.81 856.28 1223.64 856.28 1219.56L856.28 1209.02C856.28 1202.3 854.35 1196.96 850.51 1193C846.67 1189.04 841.39 1187.05 834.67 1187.05L805.5 1187.05L805.5 1241.44ZM805.5 1169.5L830.89 1169.5C839.65 1169.5 846.04 1167.81 850.06 1164.46C854.08 1161.1 856.1 1155.97 856.1 1149.06C856.1 1142.46 854.12 1137.28 850.15 1133.52C846.19 1129.78 840.16 1127.9 832.06 1127.9L805.5 1127.9L805.5 1169.5ZM1065.28 1227.52C1055.23 1238.07 1042.18 1243.33 1026.16 1243.33C1010.43 1243.33 997.66 1238.07 987.85 1227.52C978.03 1217 973.13 1203.71 973.13 1187.69L973.13 1164.1C973.13 1148.14 978.03 1134.86 987.85 1124.3C997.66 1113.74 1010.4 1108.46 1026.07 1108.46C1042.09 1108.46 1055.15 1113.74 1065.23 1124.3C1075.32 1134.86 1080.36 1148.14 1080.36 1164.1L1080.36 1187.69C1080.36 1203.71 1075.33 1217 1065.28 1227.52ZM1058.57 1163.92C1058.57 1153 1055.64 1144.02 1049.79 1137C1043.94 1129.97 1036.03 1126.46 1026.07 1126.46C1016.47 1126.46 1008.87 1129.97 1003.29 1137C997.71 1144.02 994.92 1153 994.92 1163.92L994.92 1187.69C994.92 1198.73 997.71 1207.78 1003.29 1214.84C1008.87 1221.89 1016.49 1225.41 1026.16 1225.41C1036.18 1225.41 1044.09 1221.9 1049.88 1214.88C1055.68 1207.85 1058.57 1198.79 1058.57 1187.69L1058.57 1163.92Z" />
		</g>
	</g>
</svg>